# xmcd
#
# Track frame offsets: 
#        150
#        12017
#        26731
#        42314
#        57521
#        72387
#        86698
#        99949
#        111991
#        124271
#        134925
#        148182
#        160441
#        174766
#        186754
#        200108
#        214091
#        228268
#        239253
#        250401
#        259326
#        279045
#        294124
#        307618
#        319677
#        327908
#        342796
#
# Disc length: 4709 seconds
#
# Revision: 1
# Processed by: cddbd v1.5.2PL0 Copyright (c) Steve Scherf et al.
# Submitted via: ExactAudioCopy v1.1
#
DISCID=8f12631b
DTITLE=Various Artist - Sacred Roots Of The Blues
DYEAR=2004
DGENRE=Gospel
TTITLE0=Elder Charles Beck and His Congregation - Gabriel (mono)
TTITLE1=Rev. J.M. Gates - Amazing Grace (mono)
TTITLE2=The Pace Jubilee Singers - Oh, Death! (mono)
TTITLE3=Deacon A. Wilson - Certainly Lord (mono)
TTITLE4=The Tuskegee Institute Singers - Go Down Moses (mono)
TTITLE5=The Fisk University Jubilee Quartet - Po' Mo'ner Got A Home At
TTITLE5=Last (mono)
TTITLE6=Rev. Isaiah Shelton - The Liar (mono)
TTITLE7=The Golden Gate Jubilee Quartet - Job (mono)
TTITLE8=Marian Anderson - Nobody Knows The Trouble I've Seen (mono)
TTITLE9=Paul Robeson - Deep River (mono)
TTITLE10=The Dinwiddie Colored Quartette - Poor Mourner (mono)
TTITLE11=Blind Mamie Forehand - Honey In The Rock (mono)
TTITLE12=Lonnie McIntorsh - The Lion And The Tribes Of Judah (mono)
TTITLE13=Rev. F.W. McGee and Congregation - Fifty Miles Of Elbow Room (m
TTITLE13=ono)
TTITLE14=The Memphis Sanctified Singers - He Got Better Things For You
TTITLE14=(mono)
TTITLE15=Washington White - The Promise True And Grand (mono)
TTITLE16=The Pace Jubilee Singers - Leave It There (mono)
TTITLE17=Connie Rosemond - Going Up The King's Highway (mono)
TTITLE18=The Taskiana Four - Hide You In The Blood (mono)
TTITLE19=The Utica Institute Jubilee Singers - Peter On The Sea (mono)
TTITLE20=The Hall Johnson Negro Choir - Ezekiel Saw De Wheel, Swing Lo
TTITLE20=w Sweet Chariot, Keep Yo' Hand On The Plow, Hold On (mono)
TTITLE21=Elder Lightfoot Solomon Michaux - Happy Am I (mono)
TTITLE22=The Heavenly Gospel Singers - Precious Lord, Take My Hand (mo
TTITLE22=no)
TTITLE23=Mme. Ernestine Washington and The Milleraires - Holding On (Par
TTITLE23=t 1) (mono)
TTITLE24=Mme. Ernestine Washington and The Milleraires - Holding On (Par
TTITLE24=t 2) (mono)
TTITLE25=The Southern Sons - I'm Free At Last (mono)
TTITLE26=The Five Trumpets - Preach My Word (mono)
EXTD=
EXTT0=
EXTT1=
EXTT2=
EXTT3=
EXTT4=
EXTT5=
EXTT6=
EXTT7=
EXTT8=
EXTT9=
EXTT10=
EXTT11=
EXTT12=
EXTT13=
EXTT14=
EXTT15=
EXTT16=
EXTT17=
EXTT18=
EXTT19=
EXTT20=
EXTT21=
EXTT22=
EXTT23=
EXTT24=
EXTT25=
EXTT26=
PLAYORDER=
